<svg id="Calque_1" data-name="Calque 1" xmlns="http://www.w3.org/2000/svg" viewBox="0 0 774.16 258.9"><defs><style>.cls-1{fill:blue;}</style></defs><title>Logo_Docaposte</title><path class="cls-1" d="M77.58,220.74a38.61,38.61,0,0,1-2.42,13.54,30.1,30.1,0,0,1-6.93,11,37.14,37.14,0,0,1-7.61,6.1,40.33,40.33,0,0,1-8.82,3.88,57,57,0,0,1-10.34,2.1,108.73,108.73,0,0,1-12.18.63q-7.35,0-15.12-.16c-5.18-.1-10.5-.23-16-.36V184q8.19-.21,16-.37t15.12-.16a108.73,108.73,0,0,1,12.18.63,54.48,54.48,0,0,1,10.34,2.15,42.48,42.48,0,0,1,8.82,3.94,39.37,39.37,0,0,1,7.61,6,30.18,30.18,0,0,1,6.93,11A38.67,38.67,0,0,1,77.58,220.74Zm-16.17-.06q0-9.88-6.2-16.1a19.32,19.32,0,0,0-5.41-3.89,27.21,27.21,0,0,0-6.14-2.06,43.8,43.8,0,0,0-6.93-.84q-3.67-.15-7.66-.15H21.51q-3.68,0-7.77.1v45.89q4.09.1,7.77.15t7.56.06c2.66,0,5.21-.06,7.66-.16a38.56,38.56,0,0,0,6.93-.9,29.43,29.43,0,0,0,6.14-2.1,19.16,19.16,0,0,0,5.41-3.9Q61.41,230.59,61.41,220.68Z" transform="translate(1.8 -0.06)"/><path class="cls-1" d="M177.46,220.74a36.71,36.71,0,0,1-3,14.85,35.4,35.4,0,0,1-8.77,12.18,41.46,41.46,0,0,1-14,8.19,54.18,54.18,0,0,1-18.63,3,54.24,54.24,0,0,1-18.64-3,41.46,41.46,0,0,1-14-8.19,35.37,35.37,0,0,1-8.76-12.18,37.7,37.7,0,0,1,0-29.71,35.37,35.37,0,0,1,8.76-12.18,41.46,41.46,0,0,1,14-8.19,54.24,54.24,0,0,1,18.64-3,54.18,54.18,0,0,1,18.63,3,41.46,41.46,0,0,1,14,8.19,35.4,35.4,0,0,1,8.77,12.18A36.75,36.75,0,0,1,177.46,220.74ZM133.1,196.48a35.86,35.86,0,0,0-11.37,1.73,27.33,27.33,0,0,0-9,4.88,21.8,21.8,0,0,0-5.87,7.67,24.86,24.86,0,0,0,0,20,21.8,21.8,0,0,0,5.87,7.62,27.33,27.33,0,0,0,9,4.88,38.23,38.23,0,0,0,22.74,0,26.78,26.78,0,0,0,8.91-4.88,22.12,22.12,0,0,0,5.81-7.62,24.86,24.86,0,0,0,0-20,22.12,22.12,0,0,0-5.81-7.67,26.78,26.78,0,0,0-8.91-4.88A35.86,35.86,0,0,0,133.1,196.48Z" transform="translate(1.8 -0.06)"/><path class="cls-1" d="M264.72,193.12l-8,11.87a29.44,29.44,0,0,0-11.5-6.57,43.31,43.31,0,0,0-12.44-1.94,36,36,0,0,0-11.4,1.73,27.48,27.48,0,0,0-9,4.88,21.83,21.83,0,0,0-5.88,7.67,24.86,24.86,0,0,0,0,20,21.83,21.83,0,0,0,5.88,7.62,27.48,27.48,0,0,0,9,4.88A36,36,0,0,0,232.8,245a36.49,36.49,0,0,0,13.07-2.21,47.82,47.82,0,0,0,11.71-6.61l7.77,11.55a44,44,0,0,1-14.76,8.35,57.8,57.8,0,0,1-36.43-.11,41.8,41.8,0,0,1-14-8.19,35.28,35.28,0,0,1-8.82-12.18,37.59,37.59,0,0,1,0-29.71,35.28,35.28,0,0,1,8.82-12.18,41.8,41.8,0,0,1,14-8.19,59.44,59.44,0,0,1,36.8-.16A43.2,43.2,0,0,1,264.72,193.12Z" transform="translate(1.8 -0.06)"/><path class="cls-1" d="M360.91,257.49h-9.24c-1.47,0-2.72,0-3.73-.11a8,8,0,0,1-2.63-.58,5.53,5.53,0,0,1-1.94-1.41,12.24,12.24,0,0,1-1.68-2.63l-4.41-8.61H292.13l-6.72,13.34H268.72l38.53-74.24h15.12Zm-30.66-27.2-15.54-30.87-15.54,30.87Z" transform="translate(1.8 -0.06)"/><path class="cls-1" d="M387,235.54v22H371.44V184q5.88-.21,12.93-.37t13.67-.16q20.4,0,31,5.93t10.62,19.8q0,7.77-3.06,12.86a22.52,22.52,0,0,1-8.46,8.14,39,39,0,0,1-12.84,4.25,102,102,0,0,1-16.25,1.21c-1.62,0-3.56,0-5.84-.06S388.87,235.54,387,235.54Zm0-14.18c1.89,0,3.81,0,5.77.06s3.74.05,5.36.05c2.31,0,4.56,0,6.77-.05a47.43,47.43,0,0,0,6.19-.48,25.78,25.78,0,0,0,5.31-1.32,11,11,0,0,0,4.09-2.58,11.63,11.63,0,0,0,2.26-3.48,11.88,11.88,0,0,0,.79-4.53,10.33,10.33,0,0,0-.69-3.64,8.23,8.23,0,0,0-1.83-3,12.31,12.31,0,0,0-3.68-2.53,19.92,19.92,0,0,0-4.88-1.42,51.82,51.82,0,0,0-6.3-.64q-3.52-.15-8-.15h-5.36c-2,0-3.88,0-5.77.1Z" transform="translate(1.8 -0.06)"/><path class="cls-1" d="M538.05,220.74a36.71,36.71,0,0,1-3,14.85,35.37,35.37,0,0,1-8.76,12.18,41.46,41.46,0,0,1-14,8.19A59.38,59.38,0,0,1,475,256a41.46,41.46,0,0,1-14-8.19,35.24,35.24,0,0,1-8.76-12.18,37.7,37.7,0,0,1,0-29.71A35.24,35.24,0,0,1,461,193.7a41.46,41.46,0,0,1,14-8.19,59.38,59.38,0,0,1,37.27,0,41.46,41.46,0,0,1,14,8.19A35.37,35.37,0,0,1,535,205.88,36.76,36.76,0,0,1,538.05,220.74Zm-44.36-24.26a35.82,35.82,0,0,0-11.37,1.73,27.33,27.33,0,0,0-9,4.88,21.8,21.8,0,0,0-5.87,7.67,24.86,24.86,0,0,0,0,20,21.8,21.8,0,0,0,5.87,7.62,27.33,27.33,0,0,0,9,4.88,38.23,38.23,0,0,0,22.74,0,26.78,26.78,0,0,0,8.91-4.88,22.12,22.12,0,0,0,5.81-7.62,24.86,24.86,0,0,0,0-20,22.12,22.12,0,0,0-5.81-7.67,26.78,26.78,0,0,0-8.91-4.88A35.86,35.86,0,0,0,493.69,196.48Z" transform="translate(1.8 -0.06)"/><path class="cls-1" d="M602.94,200a42.19,42.19,0,0,0-6.3-2.36,54.41,54.41,0,0,0-6.51-1.47,38.4,38.4,0,0,0-6.09-.53A30.51,30.51,0,0,0,572,197.69c-3.15,1.36-4.72,3.38-4.72,6q0,3.36,3.67,5.25a43.67,43.67,0,0,0,9.22,3.3q5.55,1.42,12,2.79a59.74,59.74,0,0,1,12,3.83,27.38,27.38,0,0,1,9.22,6.46q3.66,4,3.67,10.5a17.8,17.8,0,0,1-2.68,9.71,23.33,23.33,0,0,1-7.35,7.24,36.65,36.65,0,0,1-10.87,4.57A53.05,53.05,0,0,1,583,259a62.25,62.25,0,0,1-8.87-.69,70.88,70.88,0,0,1-9.56-2,77.57,77.57,0,0,1-9.29-3.31,48.27,48.27,0,0,1-8.19-4.46l8-11.87a37.6,37.6,0,0,0,6.19,3.83,48.39,48.39,0,0,0,7.3,2.94,53.1,53.1,0,0,0,7.88,1.84,51.3,51.3,0,0,0,7.92.63,40.87,40.87,0,0,0,5.78-.42,21.07,21.07,0,0,0,5.3-1.42,11.53,11.53,0,0,0,3.89-2.57,5.39,5.39,0,0,0,1.52-3.89q0-3.66-3.68-5.67a37.78,37.78,0,0,0-9.24-3.3q-5.56-1.32-12-2.63a67.37,67.37,0,0,1-12-3.57,26.13,26.13,0,0,1-9.24-6.09q-3.68-3.83-3.67-10.24a18,18,0,0,1,2.59-9.44,24.44,24.44,0,0,1,7.08-7.46,34.76,34.76,0,0,1,10.53-4.88,47.12,47.12,0,0,1,13.08-1.74,57.13,57.13,0,0,1,8.14.64,74.32,74.32,0,0,1,8.66,1.78,65.07,65.07,0,0,1,8.19,2.78,43.21,43.21,0,0,1,6.93,3.63l-8,11.86A27.85,27.85,0,0,0,602.94,200Z" transform="translate(1.8 -0.06)"/><path class="cls-1" d="M696.34,198.16h-28v59.33H652.76V198.16h-28V184h71.61Z" transform="translate(1.8 -0.06)"/><path class="cls-1" d="M771,184v14.17h-48.3v14.7H767V227H722.69v16.28h49.66v14.18H712.5a5.15,5.15,0,0,1-4-1.48,5.29,5.29,0,0,1-1.36-3.77V184Z" transform="translate(1.8 -0.06)"/><path class="cls-1" d="M444.48,111.65H303.22A11.76,11.76,0,0,1,291.46,99.9h0a11.76,11.76,0,0,1,11.76-11.75H444.48A11.75,11.75,0,0,1,456.23,99.9h0A11.75,11.75,0,0,1,444.48,111.65Z" transform="translate(1.8 -0.06)"/><path class="cls-1" d="M506.15,67.6H364.89a11.75,11.75,0,0,1-11.75-11.75h0A11.75,11.75,0,0,1,364.89,44.1H506.15A11.75,11.75,0,0,1,517.9,55.85h0A11.75,11.75,0,0,1,506.15,67.6Z" transform="translate(1.8 -0.06)"/><path class="cls-1" d="M467.33,23.56H326.08a11.76,11.76,0,0,1-11.76-11.75h0A11.76,11.76,0,0,1,326.08.06H467.33a11.76,11.76,0,0,1,11.76,11.75h0A11.76,11.76,0,0,1,467.33,23.56Z" transform="translate(1.8 -0.06)"/></svg>